<?xml version="1.0" encoding="UTF-8" standalone="no"?>
<svg width="245" height="342" viewBox="0 0 245 342" fill="none" xmlns="http://www.w3.org/2000/svg">
  <rect width="245" height="342" rx="12" fill="#E5E7EB"/>
  <rect x="20" y="20" width="205" height="205" rx="8" fill="#D1D5DB"/>
  <path d="M122.5 80C107.864 80 96 91.8645 96 106.5C96 121.136 107.864 133 122.5 133C137.136 133 149 121.136 149 106.5C149 91.8645 137.136 80 122.5 80ZM122.5 123C113.387 123 106 115.613 106 106.5C106 97.3873 113.387 90 122.5 90C131.613 90 139 97.3873 139 106.5C139 115.613 131.613 123 122.5 123Z" fill="#9CA3AF"/>
  <path d="M122.5 143C96.8223 143 76 163.822 76 189.5C76 192.814 78.6863 195.5 82 195.5H163C166.314 195.5 169 192.814 169 189.5C169 163.822 148.178 143 122.5 143ZM86.3223 185.5C88.4346 168.211 103.711 153 122.5 153C141.289 153 156.565 168.211 158.678 185.5H86.3223Z" fill="#9CA3AF"/>
  <rect x="20" y="240" width="205" height="20" rx="4" fill="#D1D5DB"/>
  <rect x="20" y="270" width="205" height="20" rx="4" fill="#D1D5DB"/>
  <rect x="20" y="300" width="205" height="20" rx="4" fill="#D1D5DB"/>
  <text x="122.5" y="230" font-family="Arial, sans-serif" font-size="16" text-anchor="middle" fill="#6B7280">Image Not Available</text>
</svg>
